# xmcd
#
# Track frame offsets:
#	150
#	27801
#	43387
#	64156
#	87320
#	114745
#	130615
#	147394
#	172408
#	197821
#	218005
#
# Disc length: 2969 seconds
#
# Revision: 9
# Processed by: cddbd v1.5.2PL0 Copyright (c) Steve Scherf et al.
# Submitted via: Jack! The Knife 20 Magnifico
#
DISCID=a90b970b
DTITLE=Ozzy Osbourne - Scream
DYEAR=2010
DGENRE=Metal
TTITLE0=Let It Die
TTITLE1=Let Me Hear You Scream
TTITLE2=Soul Sucker
TTITLE3=Life Won't Wait
TTITLE4=Diggin' Me Down
TTITLE5=Crucify
TTITLE6=Fearless
TTITLE7=Time
TTITLE8=I Want It More
TTITLE9=Latimer's Mercy
TTITLE10=I Love You All
EXTD=Ozzy Osbourne and Kevin Churko
EXTT0=Osbourne, Churko, Wakeman
EXTT1=Osbourne, Churko
EXTT2=Osbourne, Churko
EXTT3=Osbourne, Churko
EXTT4=Osbourne, Churko, Wakeman
EXTT5=Osbourne, Churko
EXTT6=Osbourne, Churko, Wakeman
EXTT7=Osbourne, Churko
EXTT8=Osbourne, Churko, Wakeman
EXTT9=Osbourne, Churko
EXTT10=Osbourne, Churko, Wakeman
PLAYORDER=
